<?xml version="1.0" encoding="utf-8"?>
<!-- Generator: Adobe Illustrator 17.0.0, SVG Export Plug-In . SVG Version: 6.00 Build 0)  -->
<!DOCTYPE svg PUBLIC "-//W3C//DTD SVG 1.1//EN" "http://www.w3.org/Graphics/SVG/1.1/DTD/svg11.dtd">
<svg version="1.1" id="Layer_1" xmlns="http://www.w3.org/2000/svg" xmlns:xlink="http://www.w3.org/1999/xlink" x="0px" y="0px"
	 width="660px" height="586px" viewBox="0 0 660 586" enable-background="new 0 0 660 586" xml:space="preserve">
<path fill="none" stroke="#000000" stroke-width="4" stroke-linecap="round" stroke-linejoin="round" stroke-miterlimit="10" d="
	M145.578,155.294h23.272l20.535,81.417l21.903-81.417h16.428l20.534,81.417l19.166-81.417h25.326L261.257,279.13h-22.588
	l-19.508-69.102l-18.822,69.102h-23.273L145.578,155.294z"/>
<path fill="none" stroke="#000000" stroke-width="4" stroke-linecap="round" stroke-linejoin="round" stroke-miterlimit="10" d="
	M369.062,155.636h-18.48l-51.337,123.151h25.326l10.268-23.262h49.967l9.582,23.262H420.4L369.062,155.636z M343.739,231.579
	l16.085-35.577l15.401,35.577H343.739z"/>
<path fill="none" stroke="#000000" stroke-width="4" stroke-linecap="round" stroke-linejoin="round" stroke-miterlimit="10" d="
	M411.502,155.636h26.01l25.326,40.367l24.642-40.367h27.379l-38.331,64.312l-1.368,58.839h-25.326v-57.47L411.502,155.636z"/>
<path fill="none" stroke="#000000" stroke-width="4" stroke-linecap="round" stroke-linejoin="round" stroke-miterlimit="10" d="
	M219.161,302.733c-34.779,0-62.972,29.253-62.972,65.339s28.194,65.339,62.972,65.339s62.972-29.253,62.972-65.339
	S253.939,302.733,219.161,302.733z M218.817,408.096c-20.081,0-36.36-17.92-36.36-40.025s16.279-40.025,36.36-40.025
	s36.36,17.92,36.36,40.025S238.897,408.096,218.817,408.096z"/>
<path fill="none" stroke="#000000" stroke-width="4" stroke-linecap="round" stroke-linejoin="round" stroke-miterlimit="10" d="
	M304.036,306.154h26.409v71.838c0,0-1.769,30.103,20.82,30.103c0,0,23.957,2.737,23.957-30.788v-71.155h26.695v71.838
	c0,0,0.684,25.314-13.689,40.367c0,0-35.593,30.788-70.502,0c0,0-13.005-10.947-13.689-38.998v-73.205H304.036z"/>
<path fill="none" stroke="#000000" stroke-width="4" stroke-linecap="round" stroke-linejoin="round" stroke-miterlimit="10" d="
	M420.398,306.154h82.137v21.894h-28.747l-0.684,99.889h-26.011v-99.889h-26.694L420.398,306.154L420.398,306.154z"/>
</svg>
